<svg id="Layer_1" data-name="Layer 1" xmlns="http://www.w3.org/2000/svg" viewBox="0 0 2074.96 708.66"><defs><style>.cls-1,.cls-2{fill:#fff;}.cls-2{opacity:0.8;}</style></defs><path class="cls-1" d="M661.94,421.52V409.43c-9.72,10.9-20.62,14.94-32.23,14.94-27.74,0-50.49-20.86-50.49-60.21,0-37.92,22.28-60,50.49-60,11.61,0,23.22,4,32.23,14.94V263.42H704.6v158.1Zm0-42.66V349.47c-4-5-12.09-7.59-17.78-7.59-11.61,0-21.33,8.06-21.33,22.28s9.72,22.52,21.33,22.52C649.85,386.68,657.91,383.83,661.94,378.86Z"/><path class="cls-1" d="M726.41,272.2c0-11.62,10.19-20.86,22.75-20.86s22.52,9.24,22.52,20.86-10,20.85-22.52,20.85S726.41,283.81,726.41,272.2Zm1.89,149.32V307H771V421.52Z"/><path class="cls-1" d="M869.56,421.52V409.43c-9.71,10.9-20.62,14.94-32.23,14.94-27.73,0-50.49-20.86-50.49-60.21,0-37.92,22.28-60,50.49-60,11.61,0,23.23,4,32.23,14.94V263.42h42.67v158.1Zm0-42.66V349.47c-4-5-12.08-7.59-17.77-7.59-11.62,0-21.33,8.06-21.33,22.28s9.71,22.52,21.33,22.52C857.48,386.68,865.53,383.83,869.56,378.86Z"/><path class="cls-1" d="M928.1,364.16c0-32,23.7-60,64.24-60,40.76,0,64.47,28,64.47,60s-23.71,60.21-64.47,60.21C951.8,424.37,928.1,396.16,928.1,364.16Zm84.86,0c0-12.56-7.35-22.28-20.62-22.28-13,0-20.39,9.72-20.39,22.28,0,12.8,7.35,22.52,20.39,22.52C1005.61,386.68,1013,377,1013,364.16Z"/><path class="cls-1" d="M1150.19,421.52V358.23c0-11.85-6.4-16.35-16.6-16.35-9.71,0-14.69,5-18.24,9v70.63h-42.67V307h42.67v13c6.63-7.59,19.19-15.89,39.34-15.89,26.55,0,38.16,16.12,38.16,36v81.3Z"/><path class="cls-1" d="M1212.52,450.91l18-30.34c8.77,8.77,21.81,12.56,34.13,12.56,10,0,26.55-3.79,26.55-23.93V403c-9.72,11.14-20.38,15.41-32.24,15.41-27.49,0-50.25-18-50.25-57.12,0-38.17,22-57.13,50.25-57.13,11.86,0,23,4,32.24,14.94V307h42.66V409.2c0,49.53-40.76,58.78-69.21,58.78C1245,468,1227.45,462.76,1212.52,450.91Zm78.69-77.51V349.23c-4-4.74-12.09-7.35-17.54-7.35-11.62,0-21.33,5.45-21.33,19.44s9.71,19.43,21.33,19.43C1279.12,380.75,1287.18,378.15,1291.21,373.4Z"/><path class="cls-2" d="M1386.49,421.52,1342.16,307h45l21.8,65.42,22-65.42h45l-44.32,114.48Z"/><path class="cls-2" d="M1482.47,272.2c0-11.62,10.19-20.86,22.76-20.86s22.51,9.24,22.51,20.86-10,20.85-22.51,20.85S1482.47,283.81,1482.47,272.2Zm1.9,149.32V307H1527V421.52Z"/><path class="cls-2" d="M1542.91,364.16c0-33.18,25.36-60,62.34-60,33.66,0,59.49,24.18,59.49,64.47v8.77H1587c2.37,7.35,10.66,14.46,24.65,14.46,6.4,0,20.62-3.08,26.31-8.06l17.54,26.31c-11.38,9.72-31.76,14.23-48.83,14.23C1570.88,424.37,1542.91,401.85,1542.91,364.16Zm62.34-27.49c-13,0-17.3,8.53-18.73,13.74h37.69C1623,345.44,1619,336.67,1605.25,336.67Z"/><path class="cls-2" d="M1688.2,388.34V344h-19V307h19V275.75h42.66V307h23.23v37h-23.23v32c0,5.93,3.8,10.67,9.48,10.67,3.8,0,7.59-1.19,8.54-2.14l7.58,32.24c-4.5,4-14.46,7.59-28.91,7.59C1702.18,424.37,1688.2,412.28,1688.2,388.34Z"/><path class="cls-2" d="M1765.22,416.19a6.52,6.52,0,1,1,6.52,6.52A6.59,6.59,0,0,1,1765.22,416.19Z"/><path class="cls-2" d="M1801.6,421.52l-23.81-57.23h9.6l19.07,46.92,19-46.92h9.71l-23.81,57.23Z"/><path class="cls-2" d="M1883,421.52V384.08c0-10.07-5.09-13.27-12.79-13.27-7,0-13.63,4.26-17,8.89v41.82h-8.88V364.29h8.88v8.3c4-4.74,11.85-9.72,20.38-9.72,12,0,18.25,6,18.25,18.49v40.16Z"/><path class="cls-2" d="M352.48,191.49c83.43,0,154.51,67.65,154.51,151.08S435.91,493.65,352.48,493.65v-49a90.51,90.51,0,1,0,0-181Z"/><path class="cls-1" d="M337.57,191.49H219.12a36.05,36.05,0,0,0-36.06,36.06V469a24.61,24.61,0,0,0,24.61,24.61h129.9v-49H270a14.73,14.73,0,0,1-14.74-14.74l0,.25V285l0,.3a21.6,21.6,0,0,1,21.6-21.59l-.18,0h60.93Z"/><path class="cls-2" d="M586.49,571.18a14.14,14.14,0,0,1-6-6,20.12,20.12,0,0,1-2.1-9.54V520.07a20.12,20.12,0,0,1,2.1-9.54,14.09,14.09,0,0,1,6-6,22.8,22.8,0,0,1,19,0,13.87,13.87,0,0,1,6,6.06,20.55,20.55,0,0,1,2.08,9.57v5.58H601v-5.58a7.7,7.7,0,0,0-.56-3.06,4.21,4.21,0,0,0-1.69-2,5.58,5.58,0,0,0-5.34,0,4.29,4.29,0,0,0-1.69,2,7.51,7.51,0,0,0-.58,3.05V555.6a7.29,7.29,0,0,0,.58,3,4.29,4.29,0,0,0,1.69,1.94,5.09,5.09,0,0,0,2.63.67,5.26,5.26,0,0,0,2.73-.67,4.08,4.08,0,0,0,1.67-1.94,7.64,7.64,0,0,0,.56-3.08V550h12.69v5.58a20.56,20.56,0,0,1-2.08,9.58,13.92,13.92,0,0,1-6,6.06,22.8,22.8,0,0,1-19,0Z"/><path class="cls-2" d="M620.61,503.12h12.54v69.42H620.61Zm6,29.65H651.2v11.12H626.57Zm16.49-29.65h12.53v69.42H643.06Z"/><path class="cls-2" d="M671.9,571.18a13.92,13.92,0,0,1-6-6,20.06,20.06,0,0,1-2.08-9.44V503.12h12.59v53a5.58,5.58,0,0,0,1.31,3.94,4.75,4.75,0,0,0,3.64,1.41A4.88,4.88,0,0,0,685,560a5.5,5.5,0,0,0,1.34-3.94v-53H699v52.61a19.82,19.82,0,0,1-2.1,9.44,14.14,14.14,0,0,1-6.07,6,22.51,22.51,0,0,1-18.9,0Z"/><path class="cls-2" d="M727.38,546v26.59H714.84V546l-13.75-42.83h13L721,531.86l6.57-28.74h13Z"/><path class="cls-2" d="M744.06,503.12H756.6v69.42H744.06Zm32.46-11.26-7.59,6.63-8.39-7-8.34,7-7.63-6.63,16-12.65Zm-26.9,11.26h27.1v11.56h-27.1Zm0,29.18h24.57v11.5H749.62Zm0,28.69h27.1v11.55h-27.1Zm33.47-91.1a6.88,6.88,0,0,1,2.63,5.88,5.77,5.77,0,0,1-2.33,5q-2.32,1.63-7.08,1.64l-5.56-2.2a10.22,10.22,0,0,0,3.92-.57A1.84,1.84,0,0,0,776,478a1.59,1.59,0,0,0-.84-1.45,4.73,4.73,0,0,0-2.44-.5,15.77,15.77,0,0,0-3.24.38l-.56-7.79a25.65,25.65,0,0,1,6.27-.66C778.69,467.94,781.33,468.59,783.09,469.89Zm-13.2,10.36h10.82v4.25H769.89Z"/><path class="cls-2" d="M783.19,503.12h9.86l17.28,46.32L809,551.3V503.12H820.4V572.5h-10l-17.09-43.64,1.31-1.91V572.5H783.19Z"/><path class="cls-2" d="M886.92,535.06v20.77a19.1,19.1,0,0,1-2.15,9.36,14.29,14.29,0,0,1-6.24,6,21.38,21.38,0,0,1-9.8,2.08,22.7,22.7,0,0,1-10-2,14.27,14.27,0,0,1-6.34-5.82,18,18,0,0,1-2.2-9.12v-36a20.12,20.12,0,0,1,2.15-9.62,14.44,14.44,0,0,1,6.24-6.16,23.7,23.7,0,0,1,19.44-.07,14.11,14.11,0,0,1,6.14,6,19.32,19.32,0,0,1,2.13,9.36v5.34h-12.9v-5.34a6.45,6.45,0,0,0-.6-2.89,4.26,4.26,0,0,0-1.75-1.86,5.26,5.26,0,0,0-2.65-.65,5.71,5.71,0,0,0-2.91.72,4.64,4.64,0,0,0-1.89,2,7,7,0,0,0-.66,3.15v36a4.94,4.94,0,0,0,.68,2.6,4.4,4.4,0,0,0,2,1.72,8.22,8.22,0,0,0,6.24,0,4.48,4.48,0,0,0,2-1.81,5.51,5.51,0,0,0,.71-2.86v-9.5h-6.17V535.06Z"/><path class="cls-2" d="M906.44,572.54H893.9V503.12h12.54Z"/><path class="cls-2" d="M927.41,503.12h8.8l17.54,69.42H941.32l-9.51-45.49-9.5,45.49H909.87Zm-5.6,47.55h20v11.08h-20Z"/><path class="cls-2" d="M963.84,571.32a14.23,14.23,0,0,1-6.44-5.58,16.57,16.57,0,0,1-2.23-8.81v-38.2a16.72,16.72,0,0,1,2.23-8.83,14.06,14.06,0,0,1,6.44-5.58,27.84,27.84,0,0,1,20.27,0,14.13,14.13,0,0,1,6.45,5.58,16.81,16.81,0,0,1,2.22,8.83v38.2a16.66,16.66,0,0,1-2.22,8.81,14.31,14.31,0,0,1-6.45,5.58,27.44,27.44,0,0,1-20.27,0Zm13.45-10.62a4.76,4.76,0,0,0,2.09-2.05,6.76,6.76,0,0,0,.71-3.25V520.17a6.66,6.66,0,0,0-.71-3.2,4.71,4.71,0,0,0-2.09-2.05,7.12,7.12,0,0,0-3.31-.72,7,7,0,0,0-3.29.72,4.77,4.77,0,0,0-2.07,2.05,6.78,6.78,0,0,0-.71,3.2V555.4a6.88,6.88,0,0,0,.71,3.25,4.82,4.82,0,0,0,2.07,2.05,7,7,0,0,0,3.29.72A7.12,7.12,0,0,0,977.29,560.7Z"/><path class="cls-1" d="M1059.31,535.06v20.77a19.21,19.21,0,0,1-2.15,9.36,14.36,14.36,0,0,1-6.25,6,21.32,21.32,0,0,1-9.8,2.08,22.62,22.62,0,0,1-10-2,14.3,14.3,0,0,1-6.35-5.82,18.06,18.06,0,0,1-2.2-9.12v-36a20.24,20.24,0,0,1,2.15-9.62,14.47,14.47,0,0,1,6.25-6.16,23.7,23.7,0,0,1,19.44-.07,14.22,14.22,0,0,1,6.14,6,19.43,19.43,0,0,1,2.12,9.36v5.34h-12.89v-5.34a6.32,6.32,0,0,0-.61-2.89,4.18,4.18,0,0,0-1.74-1.86,5.32,5.32,0,0,0-2.66-.65,5.71,5.71,0,0,0-2.91.72,4.7,4.7,0,0,0-1.89,2,7,7,0,0,0-.66,3.15v36a4.86,4.86,0,0,0,.69,2.6,4.37,4.37,0,0,0,2,1.72,8.25,8.25,0,0,0,6.25,0,4.45,4.45,0,0,0,2-1.81,5.42,5.42,0,0,0,.71-2.86v-9.5h-6.17V535.06Z"/><path class="cls-1" d="M1078.82,572.54h-12.54V503.12h12.54Z"/><path class="cls-1" d="M1099.8,503.12h8.79l17.54,69.42H1113.7l-9.5-45.49-9.51,45.49h-12.43Zm-5.61,47.55h20v11.08h-20Zm3.13-59.1,12.74-12.46,9.2,8.36-14,11.36Z"/><path class="cls-1" d="M1147.37,503.12h36.8v11.37h-36.8ZM1159.5,509H1172v63.59H1159.5Z"/><path class="cls-1" d="M1190.14,503.08h12.28v69.46h-12.28Zm5.61,28.74H1209a6.58,6.58,0,0,0,2.81-.55,3.91,3.91,0,0,0,1.79-1.58,4.66,4.66,0,0,0,.61-2.45V519.5a5.66,5.66,0,0,0-.61-2.72,4,4,0,0,0-1.79-1.74,6.16,6.16,0,0,0-2.81-.6h-13.24V503.08h12.48a25.53,25.53,0,0,1,10.19,1.83,13.94,13.94,0,0,1,6.44,5.4,15.68,15.68,0,0,1,2.23,8.52V527a16.49,16.49,0,0,1-2.23,8.76,14.06,14.06,0,0,1-6.47,5.56,24.63,24.63,0,0,1-10.16,1.91h-12.48ZM1206,541l11.47-2.2,11.73,33.71h-13.44Z"/><path class="cls-1" d="M1235.69,583.05h12.53v11.84h-12.53Zm12.73-10.51h-12.53V503.12h12.53Z"/><path class="cls-1" d="M1272.69,503.12H1286l7,47.94,7-47.94h13.3l-13.55,69.42h-13.55Z"/><path class="cls-1" d="M1329.13,571.18a14,14,0,0,1-6-6,20.06,20.06,0,0,1-2.07-9.44V503.12h12.59v53a5.53,5.53,0,0,0,1.31,3.94,4.74,4.74,0,0,0,3.64,1.41,4.89,4.89,0,0,0,3.72-1.41,5.5,5.5,0,0,0,1.34-3.94v-53h12.58v52.61a19.94,19.94,0,0,1-2.09,9.44,14.2,14.2,0,0,1-6.07,6,22.53,22.53,0,0,1-18.91,0Zm15.29-61.52v-6.54h7.74a5.65,5.65,0,0,0,4.17-1.48,5.55,5.55,0,0,0,1.49-4.15V493h12.38v5.44c0,3.57-1.07,6.33-3.23,8.29s-5.19,2.93-9.1,2.93Z"/><path class="cls-1" d="M1376.45,571.32a14.18,14.18,0,0,1-6.44-5.58,16.57,16.57,0,0,1-2.23-8.81v-38.2a16.72,16.72,0,0,1,2.23-8.83,14,14,0,0,1,6.44-5.58,27.84,27.84,0,0,1,20.27,0,14.13,14.13,0,0,1,6.45,5.58,16.81,16.81,0,0,1,2.22,8.83v38.2a16.66,16.66,0,0,1-2.22,8.81,14.31,14.31,0,0,1-6.45,5.58,27.44,27.44,0,0,1-20.27,0Zm3.92,11.73h12.53v11.84h-12.53Zm9.53-22.35a4.81,4.81,0,0,0,2.09-2.05,6.76,6.76,0,0,0,.71-3.25V520.17a6.66,6.66,0,0,0-.71-3.2,4.76,4.76,0,0,0-2.09-2.05,7.12,7.12,0,0,0-3.31-.72,7,7,0,0,0-3.29.72,4.77,4.77,0,0,0-2.07,2.05,6.78,6.78,0,0,0-.71,3.2V555.4a6.88,6.88,0,0,0,.71,3.25,4.82,4.82,0,0,0,2.07,2.05,7,7,0,0,0,3.29.72A7.12,7.12,0,0,0,1389.9,560.7Zm1.79-49.7v-7.45h7.78q5.63,0,5.62-6.15v-2.49h12.43v3.44q0,6.36-3.08,9.5c-2,2.1-5.16,3.15-9.3,3.15Z"/><path class="cls-1" d="M1420.46,503.12h36.8v11.37h-36.8Zm12.13,5.83h12.53v63.59h-12.53Z"/><path class="cls-1" d="M1477,503.12h36.8v11.37H1477ZM1489.1,509h12.54v63.59H1489.1Z"/><path class="cls-1" d="M1519.74,503.08H1532v69.46h-12.28Zm5.61,28.74h13.24a6.58,6.58,0,0,0,2.81-.55,4,4,0,0,0,1.8-1.58,4.76,4.76,0,0,0,.6-2.45V519.5a5.78,5.78,0,0,0-.6-2.72,4,4,0,0,0-1.8-1.74,6.16,6.16,0,0,0-2.81-.6h-13.24V503.08h12.48a25.53,25.53,0,0,1,10.19,1.83,14,14,0,0,1,6.45,5.4,15.76,15.76,0,0,1,2.22,8.52V527a16.57,16.57,0,0,1-2.22,8.76,14.11,14.11,0,0,1-6.47,5.56,24.71,24.71,0,0,1-10.17,1.91h-12.48Zm10.21,9.21,11.48-2.2,11.72,33.71h-13.44Z"/><path class="cls-1" d="M1573.15,571.32a14.26,14.26,0,0,1-6.45-5.58,16.66,16.66,0,0,1-2.22-8.81v-38.2a16.81,16.81,0,0,1,2.22-8.83,14.08,14.08,0,0,1,6.45-5.58,27.84,27.84,0,0,1,20.27,0,14.13,14.13,0,0,1,6.45,5.58,16.81,16.81,0,0,1,2.22,8.83v38.2a16.66,16.66,0,0,1-2.22,8.81,14.31,14.31,0,0,1-6.45,5.58,27.44,27.44,0,0,1-20.27,0Zm26-79.46-7.58,6.63-8.4-7-8.34,7-7.63-6.63,16-12.65Zm-22.09,91.19h12.53v11.84h-12.53Zm9.53-22.35a4.81,4.81,0,0,0,2.09-2.05,6.76,6.76,0,0,0,.71-3.25V520.17a6.66,6.66,0,0,0-.71-3.2,4.76,4.76,0,0,0-2.09-2.05,7.12,7.12,0,0,0-3.31-.72,7,7,0,0,0-3.29.72,4.77,4.77,0,0,0-2.07,2.05,6.78,6.78,0,0,0-.71,3.2V555.4a6.88,6.88,0,0,0,.71,3.25,4.82,4.82,0,0,0,2.07,2.05,7,7,0,0,0,3.29.72A7.12,7.12,0,0,0,1586.6,560.7Z"/><path class="cls-1" d="M1621.6,572.54h-12.53V503.12h12.53Z"/></svg>